<svg width="376" height="440" viewBox="0 0 376 440" fill="none" xmlns="http://www.w3.org/2000/svg">
<g filter="url(#filter0_d_735_2036)">
<rect x="48" y="28" width="280" height="380" rx="24" fill="white"/>
<rect x="50" y="30" width="276" height="376" rx="22" stroke="#F7F3E8" stroke-width="4"/>
<mask id="path-3-inside-1_735_2036" fill="white">
<path d="M52 32H324V92H52V32Z"/>
</mask>
<path d="M52 32H324V92H52V32Z" fill="white"/>
<path d="M324 92V84H52V92V100H324V92Z" fill="#F7F3E8" fill-opacity="0.5" mask="url(#path-3-inside-1_735_2036)"/>
<path d="M77.1313 58.75H68V57.25H77.1313L72.9313 53.05L74 52L80 58L74 64L72.9313 62.95L77.1313 58.75Z" fill="#4A7554" fill-opacity="0.6"/>
<path d="M235.083 63C234.088 63 233.248 62.8695 232.562 62.6086C231.877 62.3476 231.359 61.9604 231.008 61.4469C230.657 60.9335 230.482 60.2933 230.482 59.5265C230.482 59.3025 230.497 59.067 230.526 58.8199C230.555 58.5728 230.59 58.3345 230.631 58.105C230.673 57.8754 230.712 57.6723 230.749 57.4957C230.787 57.319 230.814 57.1891 230.83 57.106L232.647 57.4569C232.619 57.6027 232.582 57.792 232.536 58.0248C232.49 58.2577 232.448 58.5038 232.411 58.7633C232.373 59.0228 232.354 59.2701 232.354 59.5051C232.354 59.8647 232.413 60.1661 232.531 60.4092C232.649 60.6523 232.825 60.8457 233.06 60.9894C233.294 61.1332 233.588 61.2344 233.941 61.293C234.293 61.3516 234.706 61.381 235.18 61.381H240.019L238.927 62.2838V53.1062H240.799V63H235.083ZM234.803 57.7179C234.621 57.5028 234.485 57.2967 234.393 57.0998C234.301 56.9029 234.255 56.694 234.255 56.473C234.255 56.1525 234.338 55.8653 234.503 55.6115C234.669 55.3576 234.889 55.1576 235.163 55.0113C235.437 54.8651 235.736 54.7919 236.062 54.7919C236.239 54.7919 236.421 54.8165 236.606 54.8656C236.791 54.9147 236.948 54.9837 237.078 55.0727L236.602 55.927C236.52 55.8804 236.439 55.8491 236.358 55.8334C236.277 55.8176 236.196 55.8097 236.114 55.8097C235.893 55.8097 235.72 55.8695 235.598 55.989C235.476 56.1086 235.414 56.2646 235.414 56.457C235.414 56.5712 235.437 56.6799 235.483 56.783C235.529 56.8861 235.6 56.9958 235.696 57.1122L234.803 57.7179ZM233.946 57.8248V56.8157H237.335V57.8248H233.946ZM248.011 63V61.381H249.486V63H248.011ZM242.326 63V61.381H247.409L246.139 62.4781V60.126C246.139 59.4673 246.071 58.9552 245.936 58.5895C245.8 58.2237 245.575 57.9661 245.26 57.8166C244.946 57.6671 244.517 57.5923 243.974 57.5923H242.84V55.9733H243.974C244.839 55.9733 245.571 56.114 246.173 56.3954C246.774 56.6768 247.231 57.1217 247.543 57.73C247.855 58.3383 248.011 59.137 248.011 60.126V63H242.326ZM249.486 63V61.381C249.538 61.381 249.582 61.3997 249.618 61.4373C249.653 61.4749 249.681 61.5289 249.702 61.5994C249.722 61.6699 249.738 61.7542 249.749 61.8523C249.76 61.9503 249.766 62.0616 249.766 62.1861C249.766 62.3107 249.76 62.4234 249.749 62.5244C249.738 62.6253 249.722 62.711 249.702 62.7815C249.681 62.852 249.653 62.9061 249.618 62.9436C249.582 62.9812 249.538 63 249.486 63ZM249.48 63V61.381H252.451C252.847 61.381 253.232 61.3042 253.604 61.1507C253.977 60.9972 254.322 60.791 254.639 60.5322C254.956 60.2734 255.233 59.9873 255.471 59.6738C255.708 59.3603 255.894 59.0399 256.028 58.7124C256.163 58.3849 256.23 58.0781 256.23 57.792V56.8932L257.128 58.3736C256.64 58.1185 256.144 57.9245 255.639 57.7917C255.134 57.6588 254.654 57.5923 254.198 57.5923C253.746 57.5923 253.268 57.6588 252.763 57.7917C252.258 57.9245 251.765 58.1185 251.283 58.3736L252.181 56.8932V57.792C252.181 58.0781 252.248 58.3849 252.382 58.7124C252.517 59.0399 252.702 59.3603 252.936 59.6738C253.17 59.9873 253.446 60.2734 253.763 60.5322C254.08 60.791 254.425 60.9972 254.798 61.1507C255.17 61.3042 255.555 61.381 255.951 61.381H258.838V63H256.539C255.811 63 255.129 62.8833 254.495 62.65C253.86 62.4167 253.286 62.1063 252.773 61.719C252.259 61.3317 251.818 60.907 251.45 60.445C251.081 59.983 250.799 59.521 250.603 59.059C250.407 58.597 250.309 58.1747 250.309 57.792V56.9947C250.71 56.7694 251.137 56.5814 251.591 56.4307C252.044 56.28 252.496 56.1661 252.947 56.089C253.397 56.0119 253.814 55.9733 254.198 55.9733C254.592 55.9733 255.012 56.0119 255.46 56.089C255.908 56.1661 256.358 56.28 256.811 56.4307C257.265 56.5814 257.692 56.7694 258.094 56.9947V57.792C258.094 58.1747 257.996 58.597 257.8 59.059C257.604 59.521 257.321 59.983 256.953 60.445C256.584 60.907 256.143 61.3317 255.63 61.719C255.116 62.1063 254.542 62.4167 253.908 62.65C253.273 62.8833 252.592 63 251.864 63H249.48ZM249.48 63C249.428 63 249.384 62.9812 249.348 62.9436C249.313 62.9061 249.285 62.852 249.264 62.7815C249.244 62.711 249.228 62.6253 249.217 62.5244C249.206 62.4234 249.2 62.3107 249.2 62.1861C249.2 62.0194 249.209 61.8769 249.226 61.7589C249.244 61.6408 249.274 61.5483 249.316 61.4813C249.358 61.4144 249.412 61.381 249.48 61.381V63ZM258.838 63V61.381C258.891 61.381 258.935 61.3997 258.97 61.4373C259.006 61.4749 259.034 61.5289 259.054 61.5994C259.075 61.6699 259.09 61.7542 259.101 61.8523C259.113 61.9503 259.118 62.0616 259.118 62.1861C259.118 62.3107 259.113 62.4234 259.101 62.5244C259.09 62.6253 259.075 62.711 259.054 62.7815C259.034 62.852 259.006 62.9061 258.97 62.9436C258.935 62.9812 258.891 63 258.838 63ZM266.672 63V61.381H268.147V63H266.672ZM258.832 63C258.78 63 258.736 62.9812 258.7 62.9436C258.665 62.9061 258.637 62.852 258.616 62.7815C258.596 62.711 258.58 62.6253 258.569 62.5244C258.558 62.4234 258.552 62.3107 258.552 62.1861C258.552 62.0194 258.561 61.8769 258.578 61.7589C258.596 61.6408 258.626 61.5483 258.668 61.4813C258.71 61.4144 258.765 61.381 258.832 61.381V63ZM258.832 63V61.381H265.368L264.8 61.8721V57.1965L265.273 57.5923H263.507C263.094 57.5923 262.771 57.6443 262.54 57.7483C262.308 57.8522 262.145 58.0411 262.051 58.315C261.957 58.5888 261.91 58.9803 261.91 59.4893C261.91 60.034 261.957 60.4405 262.051 60.7091C262.145 60.9776 262.308 61.1567 262.54 61.2464C262.771 61.3361 263.094 61.381 263.507 61.381V62.8268C262.713 62.8268 262.059 62.7167 261.546 62.4965C261.033 62.2762 260.653 61.9206 260.407 61.4297C260.161 60.9388 260.038 60.292 260.038 59.4893C260.038 58.7223 260.161 58.0771 260.407 57.5537C260.653 57.0304 261.033 56.6361 261.546 56.371C262.059 56.1059 262.713 55.9733 263.507 55.9733H266.672V63H258.832ZM268.147 63V61.381C268.199 61.381 268.243 61.3997 268.279 61.4373C268.314 61.4749 268.342 61.5289 268.363 61.5994C268.383 61.6699 268.399 61.7542 268.41 61.8523C268.421 61.9503 268.427 62.0616 268.427 62.1861C268.427 62.3107 268.421 62.4234 268.41 62.5244C268.399 62.6253 268.383 62.711 268.363 62.7815C268.342 62.852 268.314 62.9061 268.279 62.9436C268.243 62.9812 268.199 63 268.147 63ZM261.54 54.6866V53.09H263.343V54.6866H261.54ZM264.084 54.6866V53.09H265.886V54.6866H264.084ZM268.137 63V61.381H275.405L274.55 62.1045V59.5273C274.55 59.02 274.494 58.625 274.382 58.3425C274.27 58.06 274.077 57.8599 273.803 57.7422C273.53 57.6245 273.15 57.5656 272.666 57.5656C272.281 57.5656 271.905 57.591 271.537 57.6416C271.17 57.6923 270.88 57.7607 270.669 57.8469L271.835 56.7582C271.779 56.968 271.724 57.2369 271.672 57.5651C271.619 57.8933 271.576 58.2419 271.543 58.6107C271.509 58.9796 271.492 59.3404 271.492 59.6932C271.492 60.0233 271.508 60.3655 271.54 60.7197C271.572 61.0738 271.609 61.3865 271.653 61.6576C271.696 61.9287 271.729 62.1131 271.754 62.2108L269.975 62.7078C269.934 62.5723 269.887 62.3551 269.832 62.0565C269.777 61.7578 269.729 61.4038 269.689 60.9945C269.649 60.5852 269.629 60.1514 269.629 59.6932C269.629 59.2323 269.651 58.7849 269.694 58.3509C269.738 57.9169 269.792 57.5234 269.856 57.1706C269.921 56.8177 269.981 56.5357 270.037 56.3246C270.256 56.2406 270.604 56.1566 271.081 56.0726C271.557 55.9886 272.086 55.9466 272.666 55.9466C273.5 55.9466 274.196 56.0632 274.753 56.2966C275.311 56.5299 275.729 56.9082 276.006 57.4316C276.283 57.9549 276.422 58.6588 276.422 59.5433V63H268.137ZM268.142 63C268.09 63 268.046 62.9812 268.01 62.9436C267.975 62.9061 267.947 62.852 267.926 62.7815C267.906 62.711 267.89 62.6253 267.879 62.5244C267.868 62.4234 267.862 62.3107 267.862 62.1861C267.862 62.0194 267.871 61.8769 267.888 61.7589C267.906 61.6408 267.936 61.5483 267.978 61.4813C268.02 61.4144 268.075 61.381 268.142 61.381V63ZM280.975 66.4786C280.861 66.4786 280.732 66.4725 280.59 66.4603C280.447 66.4481 280.3 66.4355 280.148 66.4226L280.226 64.825C280.374 64.8307 280.515 64.838 280.649 64.8466C280.782 64.8553 280.884 64.8596 280.953 64.8596C281.321 64.8596 281.613 64.7162 281.83 64.4294C282.048 64.1426 282.156 63.7354 282.156 63.208V55.9733H284.028V63.208C284.028 63.845 283.9 64.4107 283.643 64.9053C283.386 65.3998 283.029 65.7857 282.572 66.0629C282.114 66.3401 281.582 66.4786 280.975 66.4786ZM288.092 63V61.381H289.688V63H288.092ZM286.229 63V53.1062H288.092V63H286.229ZM289.688 63V61.381C289.74 61.381 289.784 61.3997 289.82 61.4373C289.855 61.4749 289.883 61.5289 289.904 61.5994C289.924 61.6699 289.94 61.7542 289.951 61.8523C289.962 61.9503 289.968 62.0616 289.968 62.1861C289.968 62.3107 289.962 62.4234 289.951 62.5244C289.94 62.6253 289.924 62.711 289.904 62.7815C289.883 62.852 289.855 62.9061 289.82 62.9436C289.785 62.9812 289.741 63 289.688 63ZM293.783 63V61.381H295.524V63H293.783ZM295.524 63V61.381C295.577 61.381 295.621 61.3997 295.656 61.4373C295.692 61.4749 295.72 61.5289 295.74 61.5994C295.761 61.6699 295.776 61.7542 295.788 61.8523C295.799 61.9503 295.804 62.0616 295.804 62.1861C295.804 62.3107 295.799 62.4234 295.788 62.5244C295.776 62.6253 295.761 62.711 295.74 62.7815C295.72 62.852 295.692 62.9061 295.657 62.9436C295.621 62.9812 295.577 63 295.524 63ZM289.688 63C289.635 63 289.591 62.9812 289.556 62.9436C289.52 62.9061 289.493 62.852 289.472 62.7815C289.452 62.711 289.436 62.6253 289.425 62.5244C289.414 62.4234 289.408 62.3107 289.408 62.1861C289.408 62.0194 289.417 61.8769 289.434 61.7589C289.452 61.6408 289.482 61.5483 289.524 61.4813C289.566 61.4144 289.621 61.381 289.688 61.381V63ZM289.688 63V61.381H293.002L291.911 62.2838V55.9733H293.783V63H289.688ZM290.681 54.6866V53.09H292.483V54.6866H290.681ZM293.224 54.6866V53.09H295.026V54.6866H293.224ZM295.526 63V61.381H301.54L300.91 61.8886V59.3035C300.91 58.7467 300.735 58.3237 300.386 58.0346C300.036 57.7455 299.485 57.601 298.731 57.601C298.517 57.601 298.224 57.6167 297.852 57.648C297.481 57.6793 297.075 57.7269 296.635 57.7909L296.455 56.3126C296.849 56.2157 297.254 56.1349 297.673 56.0703C298.091 56.0056 298.499 55.9733 298.896 55.9733C299.662 55.9733 300.336 56.1061 300.918 56.3717C301.499 56.6374 301.956 57.0176 302.286 57.5124C302.617 58.0072 302.782 58.6042 302.782 59.3035V63H295.526ZM295.526 63C295.474 63 295.43 62.9812 295.394 62.9436C295.359 62.9061 295.331 62.852 295.31 62.7815C295.29 62.711 295.274 62.6253 295.263 62.5244C295.252 62.4234 295.246 62.3107 295.246 62.1861C295.246 62.0194 295.255 61.8769 295.272 61.7589C295.29 61.6408 295.32 61.5483 295.362 61.4813C295.404 61.4144 295.459 61.381 295.526 61.381V63ZM297.954 54.8684V53.2718H299.837V54.8684H297.954ZM304.877 63V53.1062H306.74V63H304.877Z" fill="#4A7554"/>
<path d="M321 51C321 49.3431 322.343 48 324 48V68C322.343 68 321 66.6569 321 65V51Z" fill="#9BBF4E"/>
<g clip-path="url(#clip0_735_2036)">
<rect width="272" height="312" transform="translate(52 92)" fill="#FDF9EE"/>
<rect x="276" y="108" width="32" height="32" rx="16" fill="#F2EEE3"/>
<path d="M297.556 123.023L296.594 122.381L296.783 122.075C296.842 121.988 296.885 121.898 296.915 121.805C296.944 121.713 296.958 121.613 296.958 121.506C296.958 121.37 296.934 121.239 296.885 121.113C296.837 120.986 296.764 120.874 296.667 120.777C296.463 120.573 296.305 120.337 296.193 120.07C296.081 119.802 296.025 119.523 296.025 119.231C296.025 119.008 296.057 118.794 296.12 118.59C296.183 118.385 296.273 118.191 296.39 118.006L296.579 117.715L297.556 118.356L297.352 118.663C297.294 118.75 297.252 118.84 297.228 118.932C297.204 119.025 297.192 119.124 297.192 119.231C297.192 119.367 297.216 119.499 297.265 119.625C297.313 119.751 297.386 119.863 297.483 119.96C297.688 120.165 297.845 120.4 297.957 120.668C298.069 120.935 298.125 121.215 298.125 121.506C298.125 121.73 298.093 121.944 298.03 122.148C297.967 122.352 297.877 122.547 297.76 122.731L297.556 123.023ZM295.106 123.023L294.144 122.381L294.333 122.075C294.392 121.988 294.435 121.898 294.465 121.805C294.494 121.713 294.508 121.613 294.508 121.506C294.508 121.37 294.484 121.239 294.435 121.113C294.387 120.986 294.314 120.874 294.217 120.777C294.012 120.573 293.855 120.337 293.743 120.07C293.631 119.802 293.575 119.523 293.575 119.231C293.575 119.008 293.607 118.794 293.67 118.59C293.733 118.385 293.823 118.191 293.94 118.006L294.129 117.715L295.106 118.356L294.902 118.663C294.844 118.75 294.802 118.84 294.778 118.932C294.754 119.025 294.742 119.124 294.742 119.231C294.742 119.367 294.766 119.499 294.815 119.625C294.863 119.751 294.936 119.863 295.033 119.96C295.238 120.165 295.395 120.4 295.507 120.668C295.619 120.935 295.675 121.215 295.675 121.506C295.675 121.73 295.643 121.944 295.58 122.148C295.517 122.352 295.427 122.547 295.31 122.731L295.106 123.023ZM292.292 129.075C293.351 128.939 294.256 128.497 295.004 127.748C295.753 126.999 296.195 126.095 296.331 125.035H294.042L292.292 127.223V129.075ZM292.671 123.023L291.694 122.381L291.898 122.075C291.956 121.988 292 121.898 292.029 121.805C292.058 121.713 292.073 121.613 292.073 121.506C292.073 121.37 292.046 121.239 291.993 121.113C291.939 120.986 291.864 120.874 291.767 120.777C291.562 120.573 291.405 120.337 291.293 120.07C291.181 119.802 291.125 119.523 291.125 119.231C291.125 119.008 291.154 118.794 291.213 118.59C291.271 118.385 291.363 118.191 291.49 118.006L291.694 117.715L292.671 118.356L292.467 118.663C292.408 118.74 292.365 118.828 292.335 118.925C292.306 119.022 292.292 119.124 292.292 119.231C292.292 119.367 292.316 119.499 292.365 119.625C292.413 119.751 292.486 119.863 292.583 119.96C292.788 120.165 292.945 120.4 293.057 120.668C293.169 120.935 293.225 121.215 293.225 121.506C293.225 121.73 293.193 121.944 293.13 122.148C293.067 122.352 292.977 122.547 292.86 122.731L292.671 123.023ZM287.085 125.035C287.222 126.095 287.664 126.999 288.412 127.748C289.161 128.497 290.065 128.939 291.125 129.075V127.223L289.375 125.035H287.085ZM287.085 123.869H297.512C297.522 123.966 297.53 124.063 297.534 124.16C297.539 124.258 297.542 124.355 297.542 124.452C297.542 125.259 297.389 126.017 297.082 126.727C296.776 127.437 296.36 128.054 295.835 128.579C295.31 129.104 294.693 129.52 293.983 129.826C293.274 130.132 292.515 130.285 291.708 130.285C290.901 130.285 290.143 130.132 289.433 129.826C288.724 129.52 288.106 129.104 287.581 128.579C287.056 128.054 286.641 127.437 286.334 126.727C286.028 126.017 285.875 125.259 285.875 124.452C285.875 123.14 286.259 121.975 287.027 120.959C287.795 119.943 288.772 119.251 289.958 118.881V120.135C289.19 120.447 288.546 120.93 288.026 121.586C287.506 122.243 287.192 123.003 287.085 123.869Z" fill="#4A7554" fill-opacity="0.5"/>
<g opacity="0.8">
<rect x="252" y="164" width="52" height="52" rx="8" fill="#E5DBC8"/>
<path d="M275.2 193.5L274.5 192.8L277.3 190L274.5 187.2L275.2 186.5L278 189.3L280.8 186.5L281.5 187.2L278.7 190L281.5 192.8L280.8 193.5L278 190.7L275.2 193.5Z" fill="black" fill-opacity="0.2"/>
</g>
<rect x="193" y="165" width="50" height="50" rx="7" fill="white" stroke="#9BBF4E" stroke-width="2"/>
<rect x="73" y="165" width="50" height="50" rx="7" fill="white" stroke="#9BBF4E" stroke-width="2"/>
<rect x="253" y="229" width="50" height="50" rx="7" fill="white" stroke="#9BBF4E" stroke-width="2"/>
<rect x="193" y="229" width="50" height="50" rx="7" fill="white" stroke="#9BBF4E" stroke-width="2"/>
<rect x="73" y="229" width="50" height="50" rx="7" fill="white" stroke="#9BBF4E" stroke-width="2"/>
<g filter="url(#filter1_d_735_2036)">
<rect x="252" y="292" width="52" height="52" rx="8" fill="#E09162" shape-rendering="crispEdges"/>
<path d="M276.499 321.683L273.008 318.191L273.881 317.319L276.499 319.937L282.119 314.317L282.992 315.19L276.499 321.683Z" fill="white"/>
</g>
<g filter="url(#filter2_d_735_2036)">
<rect x="192" y="292" width="52" height="52" rx="8" fill="#E09162" shape-rendering="crispEdges"/>
<path d="M216.499 321.683L213.008 318.191L213.881 317.319L216.499 319.937L222.119 314.317L222.992 315.19L216.499 321.683Z" fill="white"/>
</g>
<g opacity="0.8">
<rect x="72" y="292" width="52" height="52" rx="8" fill="#E5DBC8"/>
<path d="M95.2 321.5L94.5 320.8L97.3 318L94.5 315.2L95.2 314.5L98 317.3L100.8 314.5L101.5 315.2L98.7 318L101.5 320.8L100.8 321.5L98 318.7L95.2 321.5Z" fill="black" fill-opacity="0.2"/>
</g>
<rect x="253" y="357" width="50" height="50" rx="7" fill="white" stroke="#9BBF4E" stroke-width="2"/>
<g opacity="0.8">
<rect x="192" y="356" width="52" height="52" rx="8" fill="#E5DBC8"/>
<path d="M215.2 385.5L214.5 384.8L217.3 382L214.5 379.2L215.2 378.5L218 381.3L220.8 378.5L221.5 379.2L218.7 382L221.5 384.8L220.8 385.5L218 382.7L215.2 385.5Z" fill="black" fill-opacity="0.2"/>
</g>
<g opacity="0.8">
<rect x="72" y="356" width="52" height="52" rx="8" fill="#E5DBC8"/>
<path d="M95.2 385.5L94.5 384.8L97.3 382L94.5 379.2L95.2 378.5L98 381.3L100.8 378.5L101.5 379.2L98.7 382L101.5 384.8L100.8 385.5L98 382.7L95.2 385.5Z" fill="black" fill-opacity="0.2"/>
</g>
<rect x="52" y="308" width="272" height="96" fill="url(#paint0_linear_735_2036)"/>
<g filter="url(#filter3_d_735_2036)">
<rect x="68" y="348" width="240" height="40" rx="20" fill="#4A7554" shape-rendering="crispEdges"/>
<path d="M157.311 371.5V370.112H158.575V371.5H157.311ZM152.438 371.5V370.112H156.795L155.706 371.053V369.037C155.706 368.472 155.648 368.033 155.532 367.72C155.416 367.406 155.223 367.185 154.953 367.057C154.683 366.929 154.316 366.865 153.851 366.865H152.879V365.477H153.851C154.592 365.477 155.22 365.598 155.735 365.839C156.251 366.08 156.642 366.461 156.91 366.983C157.177 367.504 157.311 368.189 157.311 369.037V371.5H152.438ZM158.575 371.5V370.112C158.62 370.112 158.658 370.128 158.688 370.161C158.718 370.193 158.742 370.239 158.76 370.3C158.778 370.36 158.791 370.432 158.801 370.516C158.81 370.6 158.815 370.696 158.815 370.802C158.815 370.909 158.81 371.006 158.801 371.092C158.791 371.179 158.778 371.252 158.76 371.313C158.742 371.373 158.718 371.419 158.688 371.452C158.658 371.484 158.62 371.5 158.575 371.5ZM160.821 371.308C160.414 370.925 160.108 370.518 159.905 370.086C159.701 369.654 159.599 369.193 159.599 368.703C159.599 368.229 159.688 367.794 159.864 367.4C160.041 367.006 160.282 366.664 160.586 366.375C160.891 366.085 161.245 365.863 161.649 365.709C162.053 365.554 162.479 365.477 162.928 365.477C163.169 365.477 163.421 365.5 163.683 365.547C163.945 365.593 164.195 365.659 164.434 365.744L163.963 367.052C163.794 366.992 163.627 366.946 163.463 366.913C163.298 366.881 163.138 366.865 162.981 366.865C162.631 366.865 162.32 366.943 162.05 367.098C161.779 367.254 161.571 367.469 161.424 367.742C161.277 368.015 161.204 368.329 161.204 368.685C161.204 369.003 161.268 369.301 161.398 369.58C161.527 369.858 161.717 370.112 161.969 370.34L160.821 371.308ZM158.57 371.5V370.112H164.55V371.5H158.57ZM158.57 371.5C158.525 371.5 158.487 371.484 158.457 371.452C158.426 371.419 158.402 371.373 158.385 371.313C158.367 371.252 158.354 371.179 158.344 371.092C158.335 371.006 158.33 370.909 158.33 370.802C158.33 370.659 158.337 370.537 158.353 370.436C158.368 370.335 158.393 370.256 158.429 370.198C158.465 370.141 158.512 370.112 158.57 370.112V371.5ZM168.182 371.5V370.112H169.55V371.5H168.182ZM166.585 371.5V363.02H168.182V371.5H166.585ZM169.55 371.5V370.112C169.595 370.112 169.632 370.128 169.663 370.161C169.693 370.193 169.717 370.239 169.735 370.3C169.752 370.36 169.766 370.432 169.775 370.516C169.785 370.6 169.79 370.696 169.79 370.802C169.79 370.909 169.785 371.006 169.775 371.092C169.766 371.179 169.752 371.252 169.735 371.313C169.717 371.373 169.693 371.419 169.663 371.452C169.633 371.484 169.595 371.5 169.55 371.5ZM176.27 371.5V370.112H177.534V371.5H176.27ZM169.55 371.5C169.505 371.5 169.467 371.484 169.437 371.452C169.406 371.419 169.382 371.373 169.365 371.313C169.347 371.252 169.334 371.179 169.324 371.092C169.315 371.006 169.31 370.909 169.31 370.802C169.31 370.659 169.317 370.537 169.333 370.436C169.348 370.335 169.373 370.256 169.409 370.198C169.445 370.141 169.492 370.112 169.55 370.112V371.5ZM169.55 371.5V370.112H175.152L174.665 370.533V366.526L175.07 366.865H173.557C173.203 366.865 172.927 366.909 172.728 366.999C172.529 367.088 172.39 367.25 172.309 367.484C172.228 367.719 172.188 368.055 172.188 368.491C172.188 368.958 172.228 369.306 172.309 369.536C172.39 369.766 172.529 369.92 172.728 369.997C172.927 370.074 173.203 370.112 173.557 370.112V371.352C172.876 371.352 172.316 371.257 171.876 371.068C171.436 370.88 171.111 370.575 170.9 370.154C170.689 369.733 170.583 369.179 170.583 368.491C170.583 367.833 170.689 367.28 170.9 366.832C171.111 366.383 171.436 366.045 171.876 365.818C172.316 365.591 172.876 365.477 173.557 365.477H176.27V371.5H169.55ZM177.534 371.5V370.112C177.579 370.112 177.617 370.128 177.647 370.161C177.678 370.193 177.702 370.239 177.719 370.3C177.737 370.36 177.75 370.432 177.76 370.516C177.769 370.6 177.774 370.696 177.774 370.802C177.774 370.909 177.769 371.006 177.76 371.092C177.75 371.179 177.737 371.252 177.719 371.313C177.702 371.373 177.678 371.419 177.647 371.452C177.617 371.484 177.579 371.5 177.534 371.5ZM171.871 364.374V363.006H173.416V364.374H171.871ZM174.051 364.374V363.006H175.596V364.374H174.051ZM184.627 371.5V370.112H185.891V371.5H184.627ZM177.53 371.5C177.485 371.5 177.447 371.484 177.417 371.452C177.386 371.419 177.362 371.373 177.345 371.313C177.327 371.252 177.314 371.179 177.304 371.092C177.295 371.006 177.29 370.909 177.29 370.802C177.29 370.659 177.297 370.537 177.313 370.436C177.328 370.335 177.353 370.256 177.389 370.198C177.425 370.141 177.472 370.112 177.53 370.112V371.5ZM177.525 371.5V370.112H183.755L183.022 370.732V368.523C183.022 368.089 182.974 367.75 182.879 367.508C182.783 367.266 182.617 367.094 182.383 366.993C182.148 366.892 181.823 366.842 181.408 366.842C181.078 366.842 180.755 366.864 180.44 366.907C180.125 366.951 179.877 367.009 179.696 367.083L180.695 366.15C180.647 366.33 180.601 366.56 180.556 366.842C180.511 367.123 180.474 367.422 180.445 367.738C180.416 368.054 180.401 368.363 180.401 368.666C180.401 368.949 180.415 369.242 180.442 369.545C180.47 369.849 180.502 370.117 180.539 370.349C180.576 370.582 180.605 370.74 180.626 370.824L179.101 371.25C179.066 371.133 179.025 370.947 178.978 370.691C178.931 370.435 178.89 370.132 178.856 369.781C178.821 369.43 178.804 369.058 178.804 368.666C178.804 368.271 178.823 367.887 178.86 367.515C178.898 367.143 178.944 366.806 178.999 366.503C179.054 366.201 179.106 365.959 179.154 365.778C179.342 365.706 179.64 365.634 180.049 365.562C180.457 365.49 180.91 365.454 181.408 365.454C182.123 365.454 182.719 365.554 183.197 365.754C183.675 365.954 184.033 366.278 184.27 366.727C184.508 367.176 184.627 367.779 184.627 368.537V371.5H177.525ZM185.891 371.5V370.112C185.936 370.112 185.974 370.128 186.004 370.161C186.035 370.193 186.059 370.239 186.076 370.3C186.094 370.36 186.107 370.432 186.117 370.516C186.126 370.6 186.131 370.696 186.131 370.802C186.131 370.909 186.126 371.006 186.117 371.092C186.107 371.179 186.094 371.252 186.076 371.313C186.059 371.373 186.035 371.419 186.004 371.452C185.974 371.484 185.936 371.5 185.891 371.5ZM187.254 371.5V363.02H188.859V371.5H187.254ZM185.894 371.5V370.112H187.254V371.5H185.894ZM185.894 371.5C185.849 371.5 185.811 371.484 185.781 371.452C185.75 371.419 185.726 371.373 185.709 371.313C185.691 371.252 185.678 371.179 185.668 371.092C185.659 371.006 185.654 370.909 185.654 370.802C185.654 370.659 185.661 370.537 185.677 370.436C185.692 370.335 185.717 370.256 185.753 370.198C185.789 370.141 185.836 370.112 185.894 370.112V371.5ZM190.777 371.5V363.02H192.374V371.5H190.777ZM201.423 371.5V370.112H202.687V371.5H201.423ZM196.55 371.5V370.112H200.907L199.818 371.053V369.037C199.818 368.472 199.76 368.033 199.644 367.72C199.528 367.406 199.335 367.185 199.065 367.057C198.795 366.929 198.428 366.865 197.963 366.865H196.991V365.477H197.963C198.704 365.477 199.332 365.598 199.847 365.839C200.363 366.08 200.754 366.461 201.022 366.983C201.289 367.504 201.423 368.189 201.423 369.037V371.5H196.55ZM202.687 371.5V370.112C202.732 370.112 202.77 370.128 202.8 370.161C202.83 370.193 202.854 370.239 202.872 370.3C202.89 370.36 202.903 370.432 202.913 370.516C202.922 370.6 202.927 370.696 202.927 370.802C202.927 370.909 202.922 371.006 202.913 371.092C202.903 371.179 202.89 371.252 202.872 371.313C202.854 371.373 202.83 371.419 202.8 371.452C202.77 371.484 202.732 371.5 202.687 371.5ZM206.192 371.5V370.112H207.684V371.5H206.192ZM207.684 371.5V370.112C207.729 370.112 207.767 370.128 207.798 370.161C207.828 370.193 207.852 370.239 207.87 370.3C207.887 370.36 207.901 370.432 207.91 370.516C207.92 370.6 207.924 370.696 207.924 370.802C207.924 370.909 207.92 371.006 207.91 371.092C207.901 371.179 207.887 371.252 207.87 371.313C207.852 371.373 207.828 371.419 207.798 371.452C207.768 371.484 207.73 371.5 207.684 371.5ZM202.682 371.5C202.637 371.5 202.599 371.484 202.568 371.452C202.538 371.419 202.514 371.373 202.497 371.313C202.479 371.252 202.466 371.179 202.456 371.092C202.447 371.006 202.442 370.909 202.442 370.802C202.442 370.659 202.449 370.537 202.465 370.436C202.48 370.335 202.505 370.256 202.541 370.198C202.577 370.141 202.624 370.112 202.682 370.112V371.5ZM202.682 371.5V370.112H205.523L204.587 370.886V365.477H206.192V371.5H202.682ZM203.116 374.054V372.685H204.661V374.054H203.116ZM205.296 374.054V372.685H206.841V374.054H205.296ZM207.686 371.5V370.112H213.704L213.185 370.54V368.908C213.185 368.494 213.14 368.162 213.05 367.912C212.96 367.662 212.825 367.48 212.646 367.368C212.467 367.255 212.242 367.199 211.971 367.199H209.337L208.346 365.759L208.954 364.608C209.028 364.474 209.11 364.329 209.199 364.171C209.288 364.013 209.403 363.82 209.546 363.594C209.689 363.368 209.872 363.087 210.095 362.752L211.438 363.509C211.233 363.818 211.068 364.076 210.94 364.282C210.813 364.488 210.706 364.667 210.618 364.818C210.53 364.969 210.447 365.119 210.368 365.269L209.896 366.169L209.656 365.811H211.971C212.485 365.811 212.92 365.896 213.277 366.064C213.635 366.233 213.925 366.465 214.148 366.758C214.371 367.052 214.533 367.384 214.636 367.754C214.738 368.124 214.79 368.508 214.79 368.908V371.5H207.686ZM207.686 371.5C207.641 371.5 207.603 371.484 207.573 371.452C207.542 371.419 207.518 371.373 207.501 371.313C207.483 371.252 207.47 371.179 207.46 371.092C207.451 371.006 207.446 370.909 207.446 370.802C207.446 370.659 207.453 370.537 207.469 370.436C207.484 370.335 207.509 370.256 207.545 370.198C207.581 370.141 207.628 370.112 207.686 370.112V371.5ZM218.294 371.5V370.112H219.662V371.5H218.294ZM216.697 371.5V363.02H218.294V371.5H216.697ZM219.662 371.5V370.112C219.707 370.112 219.744 370.128 219.775 370.161C219.805 370.193 219.829 370.239 219.847 370.3C219.864 370.36 219.878 370.432 219.887 370.516C219.897 370.6 219.902 370.696 219.902 370.802C219.902 370.909 219.897 371.006 219.887 371.092C219.878 371.179 219.864 371.252 219.847 371.313C219.829 371.373 219.805 371.419 219.775 371.452C219.745 371.484 219.707 371.5 219.662 371.5ZM216.775 362.049C216.619 361.865 216.502 361.688 216.423 361.519C216.345 361.35 216.305 361.171 216.305 360.982C216.305 360.707 216.376 360.461 216.518 360.244C216.66 360.026 216.849 359.854 217.083 359.729C217.318 359.604 217.575 359.541 217.854 359.541C218.006 359.541 218.162 359.562 218.32 359.604C218.479 359.646 218.614 359.705 218.725 359.782L218.317 360.514C218.247 360.474 218.177 360.447 218.108 360.434C218.039 360.42 217.969 360.413 217.899 360.413C217.709 360.413 217.561 360.465 217.456 360.567C217.352 360.67 217.299 360.803 217.299 360.968C217.299 361.066 217.319 361.159 217.358 361.248C217.398 361.336 217.458 361.43 217.54 361.53L216.775 362.049ZM216.041 362.141V361.276H218.945V362.141H216.041ZM219.662 371.5V370.112H222.503L221.567 370.886V365.477H223.172V371.5H219.662ZM219.662 371.5C219.617 371.5 219.579 371.484 219.549 371.452C219.518 371.419 219.494 371.373 219.477 371.313C219.459 371.252 219.446 371.179 219.436 371.092C219.427 371.006 219.422 370.909 219.422 370.802C219.422 370.659 219.429 370.537 219.445 370.436C219.46 370.335 219.485 370.256 219.521 370.198C219.557 370.141 219.604 370.112 219.662 370.112V371.5ZM220.513 364.374V363.006H222.058V364.374H220.513ZM222.693 364.374V363.006H224.238V364.374H222.693Z" fill="white"/>
</g>
</g>
</g>
<defs>
<filter id="filter0_d_735_2036" x="0" y="-4" width="376" height="476" filterUnits="userSpaceOnUse" color-interpolation-filters="sRGB">
<feFlood flood-opacity="0" result="BackgroundImageFix"/>
<feColorMatrix in="SourceAlpha" type="matrix" values="0 0 0 0 0 0 0 0 0 0 0 0 0 0 0 0 0 0 127 0" result="hardAlpha"/>
<feOffset dy="16"/>
<feGaussianBlur stdDeviation="24"/>
<feComposite in2="hardAlpha" operator="out"/>
<feColorMatrix type="matrix" values="0 0 0 0 0.290196 0 0 0 0 0.458824 0 0 0 0 0.329412 0 0 0 0.15 0"/>
<feBlend mode="normal" in2="BackgroundImageFix" result="effect1_dropShadow_735_2036"/>
<feBlend mode="normal" in="SourceGraphic" in2="effect1_dropShadow_735_2036" result="shape"/>
</filter>
<filter id="filter1_d_735_2036" x="240" y="284" width="76" height="76" filterUnits="userSpaceOnUse" color-interpolation-filters="sRGB">
<feFlood flood-opacity="0" result="BackgroundImageFix"/>
<feColorMatrix in="SourceAlpha" type="matrix" values="0 0 0 0 0 0 0 0 0 0 0 0 0 0 0 0 0 0 127 0" result="hardAlpha"/>
<feOffset dy="4"/>
<feGaussianBlur stdDeviation="6"/>
<feComposite in2="hardAlpha" operator="out"/>
<feColorMatrix type="matrix" values="0 0 0 0 0.878431 0 0 0 0 0.568627 0 0 0 0 0.384314 0 0 0 0.3 0"/>
<feBlend mode="normal" in2="BackgroundImageFix" result="effect1_dropShadow_735_2036"/>
<feBlend mode="normal" in="SourceGraphic" in2="effect1_dropShadow_735_2036" result="shape"/>
</filter>
<filter id="filter2_d_735_2036" x="180" y="284" width="76" height="76" filterUnits="userSpaceOnUse" color-interpolation-filters="sRGB">
<feFlood flood-opacity="0" result="BackgroundImageFix"/>
<feColorMatrix in="SourceAlpha" type="matrix" values="0 0 0 0 0 0 0 0 0 0 0 0 0 0 0 0 0 0 127 0" result="hardAlpha"/>
<feOffset dy="4"/>
<feGaussianBlur stdDeviation="6"/>
<feComposite in2="hardAlpha" operator="out"/>
<feColorMatrix type="matrix" values="0 0 0 0 0.878431 0 0 0 0 0.568627 0 0 0 0 0.384314 0 0 0 0.3 0"/>
<feBlend mode="normal" in2="BackgroundImageFix" result="effect1_dropShadow_735_2036"/>
<feBlend mode="normal" in="SourceGraphic" in2="effect1_dropShadow_735_2036" result="shape"/>
</filter>
<filter id="filter3_d_735_2036" x="56" y="340" width="264" height="64" filterUnits="userSpaceOnUse" color-interpolation-filters="sRGB">
<feFlood flood-opacity="0" result="BackgroundImageFix"/>
<feColorMatrix in="SourceAlpha" type="matrix" values="0 0 0 0 0 0 0 0 0 0 0 0 0 0 0 0 0 0 127 0" result="hardAlpha"/>
<feOffset dy="4"/>
<feGaussianBlur stdDeviation="6"/>
<feComposite in2="hardAlpha" operator="out"/>
<feColorMatrix type="matrix" values="0 0 0 0 0.290196 0 0 0 0 0.458824 0 0 0 0 0.329412 0 0 0 0.2 0"/>
<feBlend mode="normal" in2="BackgroundImageFix" result="effect1_dropShadow_735_2036"/>
<feBlend mode="normal" in="SourceGraphic" in2="effect1_dropShadow_735_2036" result="shape"/>
</filter>
<linearGradient id="paint0_linear_735_2036" x1="188" y1="404" x2="188" y2="308" gradientUnits="userSpaceOnUse">
<stop stop-color="#FDF9EE"/>
<stop offset="1" stop-color="#FDF9EE" stop-opacity="0"/>
</linearGradient>
<clipPath id="clip0_735_2036">
<rect width="272" height="312" fill="white" transform="translate(52 92)"/>
</clipPath>
</defs>
</svg>
