<svg width="328" height="428" viewBox="0 0 328 428" fill="none" xmlns="http://www.w3.org/2000/svg">
<g filter="url(#filter0_d_735_2119)">
<g clip-path="url(#clip0_735_2119)">
<rect x="24" y="16" width="280" height="380" rx="24" fill="white"/>
<g clip-path="url(#clip1_735_2119)">
<rect width="272" height="308" transform="translate(28 20)" fill="#F7F3E8"/>
<path opacity="0.6" d="M66.8572 246.857C131.619 214.476 196.381 165.905 261.143 101.143" stroke="#4A7554" stroke-width="3.88571" stroke-dasharray="7.77 7.77"/>
<foreignObject x="75.37" y="24" width="177.27" height="62"><div xmlns="http://www.w3.org/1999/xhtml" style="backdrop-filter:blur(6px);clip-path:url(#bgblur_2_735_2119_clip_path);height:100%;width:100%"></div></foreignObject><g filter="url(#filter1_d_735_2119)" data-figma-bg-blur-radius="12">
<rect x="87.37" y="36" width="153.27" height="34" rx="17" fill="white" fill-opacity="0.9" shape-rendering="crispEdges"/>
<path d="M113.516 57V55.6122H114.78V57H113.516ZM107.365 60.192C106.707 60.192 106.116 60.0703 105.59 59.8268C105.064 59.5833 104.649 59.2482 104.345 58.8215C104.04 58.3947 103.888 57.908 103.888 57.3613C103.888 57.1963 103.902 56.977 103.929 56.7033C103.957 56.4296 103.993 56.1279 104.038 55.7983C104.083 55.4686 104.132 55.1291 104.185 54.7798C104.237 54.4304 104.288 54.1002 104.336 53.7889L105.919 54.0062C105.834 54.541 105.76 55.0277 105.695 55.4664C105.631 55.905 105.582 56.2809 105.549 56.594C105.516 56.9071 105.5 57.148 105.5 57.3167C105.5 57.6347 105.574 57.9036 105.721 58.1233C105.868 58.3431 106.082 58.5115 106.362 58.6286C106.642 58.7457 106.976 58.8042 107.365 58.8042H110.181C110.569 58.8042 110.89 58.7507 111.145 58.6437C111.399 58.5367 111.591 58.3811 111.719 58.1768C111.847 57.9725 111.911 57.7237 111.911 57.4304V52.0255L112.316 52.3649H110.803C110.449 52.3649 110.173 52.4094 109.974 52.4985C109.775 52.5876 109.636 52.7495 109.555 52.9843C109.474 53.219 109.434 53.5545 109.434 53.9908C109.434 54.4577 109.474 54.8062 109.555 55.0363C109.636 55.2665 109.775 55.42 109.974 55.4969C110.173 55.5738 110.449 55.6122 110.803 55.6122H111.911V57H110.803C110.117 57 109.556 56.8932 109.118 56.6797C108.681 56.4662 108.357 56.1367 108.146 55.6911C107.935 55.2456 107.829 54.6788 107.829 53.9908C107.829 53.3334 107.935 52.7803 108.146 52.3318C108.357 51.8832 108.681 51.5453 109.118 51.318C109.556 51.0907 110.117 50.9771 110.803 50.9771H113.516V57.4304C113.516 57.9977 113.37 58.4887 113.079 58.9034C112.787 59.3182 112.39 59.6366 111.887 59.8588C111.384 60.0809 110.815 60.192 110.181 60.192H107.365ZM114.78 57V55.6122C114.825 55.6122 114.863 55.6284 114.893 55.6606C114.924 55.6928 114.948 55.7391 114.965 55.7995C114.983 55.8599 114.996 55.9322 115.006 56.0162C115.015 56.1003 115.02 56.1957 115.02 56.3024C115.02 56.4092 115.015 56.5058 115.006 56.5923C114.996 56.6788 114.983 56.7523 114.965 56.8127C114.948 56.8732 114.924 56.9195 114.893 56.9517C114.863 56.9839 114.825 57 114.78 57ZM109.117 49.8742V48.5057H110.662V49.8742H109.117ZM111.297 49.8742V48.5057H112.842V49.8742H111.297ZM114.784 57V55.6122H117.625L116.689 56.3861V50.9771H118.294V57H114.784ZM114.784 57C114.739 57 114.701 56.9839 114.671 56.9517C114.64 56.9195 114.616 56.8732 114.599 56.8127C114.581 56.7523 114.568 56.6788 114.558 56.5923C114.549 56.5058 114.544 56.4092 114.544 56.3024C114.544 56.1595 114.552 56.0374 114.567 55.9362C114.582 55.835 114.607 55.7557 114.643 55.6983C114.679 55.6409 114.726 55.6122 114.784 55.6122V57ZM115.218 59.5538V58.1853H116.763V59.5538H115.218ZM117.398 59.5538V58.1853H118.943V59.5538H117.398ZM121.84 57V55.6122H123.208V57H121.84ZM120.243 57V48.5196H121.84V57H120.243ZM123.208 57V55.6122C123.253 55.6122 123.29 55.6284 123.321 55.6606C123.351 55.6928 123.375 55.7391 123.393 55.7995C123.41 55.8599 123.424 55.9322 123.433 56.0162C123.443 56.1003 123.448 56.1957 123.448 56.3024C123.448 56.4092 123.443 56.5058 123.433 56.5923C123.424 56.6788 123.41 56.7523 123.393 56.8127C123.375 56.8732 123.351 56.9195 123.321 56.9517C123.291 56.9839 123.253 57 123.208 57ZM123.208 57V55.6122H128.81L128.323 56.0332V52.0255L128.728 52.3649H127.215C126.861 52.3649 126.585 52.4094 126.386 52.4985C126.187 52.5876 126.048 52.7495 125.967 52.9843C125.886 53.219 125.846 53.5545 125.846 53.9908C125.846 54.4577 125.886 54.8062 125.967 55.0363C126.048 55.2665 126.187 55.42 126.386 55.4969C126.585 55.5738 126.861 55.6122 127.215 55.6122V56.8516C126.534 56.8516 125.974 56.7572 125.534 56.5684C125.094 56.3796 124.769 56.0748 124.558 55.654C124.347 55.2332 124.241 54.6788 124.241 53.9908C124.241 53.3334 124.347 52.7803 124.558 52.3318C124.769 51.8832 125.094 51.5453 125.534 51.318C125.974 51.0907 126.534 50.9771 127.215 50.9771H129.928V57H123.208ZM123.208 57C123.163 57 123.125 56.9839 123.095 56.9517C123.064 56.9195 123.04 56.8732 123.023 56.8127C123.005 56.7523 122.992 56.6788 122.982 56.5923C122.973 56.5058 122.968 56.4092 122.968 56.3024C122.968 56.1595 122.976 56.0374 122.991 55.9362C123.006 55.835 123.031 55.7557 123.067 55.6983C123.103 55.6409 123.15 55.6122 123.208 55.6122V57ZM125.53 49.8742V48.5057H127.075V49.8742H125.53ZM127.709 49.8742V48.5057H129.254V49.8742H127.709ZM131.248 57V55.6122H135.605L134.516 56.5527V54.5365C134.516 53.972 134.458 53.533 134.342 53.2195C134.226 52.9061 134.033 52.6853 133.763 52.5571C133.493 52.4289 133.126 52.3649 132.661 52.3649H131.689V50.9771H132.661C133.402 50.9771 134.03 51.0977 134.545 51.3389C135.061 51.5801 135.452 51.9615 135.72 52.4829C135.987 53.0043 136.121 53.6889 136.121 54.5365V57H131.248ZM142.703 57V49.4116L143.969 50.4678H139.696V49.08H144.3V57H142.703ZM152.339 59.976C151.649 59.976 151.03 59.8493 150.481 59.5959C149.933 59.3426 149.502 58.9926 149.189 58.5461C148.876 58.0996 148.72 57.593 148.72 57.0265C148.72 56.8616 148.732 56.6472 148.757 56.3834C148.782 56.1196 148.816 55.8254 148.859 55.5006C148.901 55.1759 148.949 54.8426 149.002 54.5007C149.055 54.1588 149.105 53.8273 149.153 53.5061L150.736 53.7234C150.652 54.2632 150.578 54.7548 150.516 55.1984C150.454 55.642 150.407 56.0183 150.374 56.3274C150.341 56.6365 150.325 56.8665 150.325 57.0174C150.325 57.3304 150.404 57.6045 150.564 57.8397C150.724 58.0748 150.955 58.2584 151.257 58.3903C151.56 58.5223 151.92 58.5882 152.339 58.5882C152.78 58.5882 153.136 58.5229 153.408 58.3923C153.68 58.2617 153.88 58.0848 154.006 57.8616C154.132 57.6385 154.195 57.3856 154.195 57.1031V48.5196H155.799V57.1031C155.799 57.6845 155.648 58.1912 155.347 58.6232C155.046 59.0553 154.636 59.3888 154.116 59.6237C153.595 59.8586 153.003 59.976 152.339 59.976ZM164.039 57V55.6122H165.303V57H164.039ZM157.108 57V55.6122H163.205L162.434 56.3949V48.5196H164.039V57H157.108ZM158.781 55.6122V50.2007H160.378V55.6122H158.781ZM165.303 57V55.6122C165.348 55.6122 165.385 55.6284 165.416 55.6606C165.446 55.6928 165.47 55.7391 165.488 55.7995C165.505 55.8599 165.519 55.9322 165.528 56.0162C165.538 56.1003 165.543 56.1957 165.543 56.3024C165.543 56.4092 165.538 56.5058 165.528 56.5923C165.519 56.6788 165.505 56.7523 165.488 56.8127C165.47 56.8732 165.446 56.9195 165.416 56.9517C165.386 56.9839 165.348 57 165.303 57ZM165.304 57V55.6122H170.459L169.919 56.0474V53.8315C169.919 53.3543 169.769 52.9918 169.469 52.744C169.17 52.4962 168.697 52.3723 168.052 52.3723C167.868 52.3723 167.617 52.3857 167.298 52.4125C166.979 52.4394 166.631 52.4802 166.254 52.5351L166.101 51.2679C166.438 51.1849 166.786 51.1157 167.144 51.0602C167.502 51.0048 167.852 50.9771 168.192 50.9771C168.849 50.9771 169.427 51.0909 169.925 51.3186C170.424 51.5463 170.815 51.8722 171.098 52.2963C171.382 52.7204 171.523 53.2322 171.523 53.8315V57H165.304ZM165.304 57C165.259 57 165.221 56.9839 165.191 56.9517C165.16 56.9195 165.136 56.8732 165.119 56.8127C165.101 56.7523 165.088 56.6788 165.078 56.5923C165.069 56.5058 165.064 56.4092 165.064 56.3024C165.064 56.1595 165.072 56.0374 165.087 55.9362C165.102 55.835 165.127 55.7557 165.163 55.6983C165.199 55.6409 165.246 55.6122 165.304 55.6122V57ZM167.386 50.03V48.6616H168.999V50.03H167.386ZM182.415 57V55.6122H183.679V57H182.415ZM178.955 59.976C178.265 59.976 177.646 59.8493 177.097 59.5959C176.549 59.3426 176.118 58.9926 175.805 58.5461C175.492 58.0996 175.336 57.593 175.336 57.0265C175.336 56.8616 175.348 56.6472 175.373 56.3834C175.398 56.1196 175.432 55.8254 175.475 55.5006C175.517 55.1759 175.565 54.8426 175.618 54.5007C175.671 54.1588 175.721 53.8273 175.769 53.5061L177.352 53.7234C177.268 54.2632 177.194 54.7548 177.132 55.1984C177.07 55.642 177.023 56.0183 176.99 56.3274C176.957 56.6365 176.941 56.8665 176.941 57.0174C176.941 57.3304 177.02 57.6045 177.18 57.8397C177.34 58.0748 177.571 58.2584 177.873 58.3903C178.176 58.5223 178.536 58.5882 178.955 58.5882C179.396 58.5882 179.752 58.5229 180.024 58.3923C180.296 58.2617 180.496 58.0848 180.622 57.8616C180.748 57.6385 180.811 57.3856 180.811 57.1031V48.5196H182.415V57.1031C182.415 57.6845 182.264 58.1912 181.963 58.6232C181.662 59.0553 181.252 59.3888 180.732 59.6237C180.211 59.8586 179.619 59.976 178.955 59.976ZM183.679 57V55.6122C183.724 55.6122 183.762 55.6284 183.792 55.6606C183.823 55.6928 183.847 55.7391 183.864 55.7995C183.882 55.8599 183.895 55.9322 183.905 56.0162C183.914 56.1003 183.919 56.1957 183.919 56.3024C183.919 56.4092 183.914 56.5058 183.905 56.5923C183.895 56.6788 183.882 56.7523 183.864 56.8127C183.847 56.8732 183.823 56.9195 183.792 56.9517C183.762 56.9839 183.724 57 183.679 57ZM192.996 57V55.6122H194.26V57H192.996ZM183.676 57C183.631 57 183.593 56.9839 183.563 56.9517C183.532 56.9195 183.508 56.8732 183.491 56.8127C183.473 56.7523 183.46 56.6788 183.45 56.5923C183.441 56.5058 183.436 56.4092 183.436 56.3024C183.436 56.1595 183.444 56.0374 183.459 55.9362C183.474 55.835 183.499 55.7557 183.535 55.6983C183.571 55.6409 183.618 55.6122 183.676 55.6122V57ZM183.676 57V55.6122H192.745L191.392 56.7815V54.2591C191.392 53.807 191.331 53.4432 191.209 53.1677C191.087 52.8921 190.914 52.6895 190.688 52.5596C190.462 52.4298 190.189 52.3649 189.868 52.3649C189.522 52.3649 189.196 52.4328 188.89 52.5686C188.583 52.7045 188.298 52.8801 188.033 53.0956C187.767 53.3111 187.523 53.5427 187.298 53.7906C187.073 54.0384 186.873 54.2776 186.697 54.5081C186.52 54.7385 186.37 54.9314 186.245 55.0868L185.886 53.9326C186.196 53.5533 186.475 53.2076 186.725 52.8955C186.975 52.5834 187.214 52.3082 187.443 52.0699C187.671 51.8316 187.911 51.6322 188.16 51.4719C188.41 51.3115 188.686 51.1889 188.987 51.1042C189.289 51.0195 189.64 50.9771 190.04 50.9771C190.574 50.9771 191.029 51.067 191.403 51.2468C191.778 51.4266 192.084 51.6729 192.32 51.9859C192.556 52.2988 192.727 52.6506 192.835 53.0411C192.942 53.4316 192.996 53.8376 192.996 54.2591V57H183.676ZM185.192 55.6122V50.9771H186.797V55.6122H185.192ZM194.26 57V55.6122C194.305 55.6122 194.343 55.6284 194.373 55.6606C194.404 55.6928 194.428 55.7391 194.445 55.7995C194.463 55.8599 194.476 55.9322 194.486 56.0162C194.495 56.1003 194.5 56.1957 194.5 56.3024C194.5 56.4092 194.495 56.5058 194.486 56.5923C194.476 56.6788 194.463 56.7523 194.445 56.8127C194.428 56.8732 194.404 56.9195 194.373 56.9517C194.343 56.9839 194.305 57 194.26 57ZM194.26 57V55.6122H197.101L196.165 56.3861V50.9771H197.77V57H194.26ZM194.26 57C194.215 57 194.177 56.9839 194.147 56.9517C194.116 56.9195 194.092 56.8732 194.075 56.8127C194.057 56.7523 194.044 56.6788 194.034 56.5923C194.025 56.5058 194.02 56.4092 194.02 56.3024C194.02 56.1595 194.028 56.0374 194.043 55.9362C194.058 55.835 194.083 55.7557 194.119 55.6983C194.155 55.6409 194.202 55.6122 194.26 55.6122V57ZM194.694 59.5538V58.1853H196.239V59.5538H194.694ZM196.874 59.5538V58.1853H198.419V59.5538H196.874Z" fill="#4A7554"/>
<path d="M216.605 56.525L217.655 55.475L214.88 52.7V49.25H213.38V53.3L216.605 56.525ZM214.13 60.5C213.093 60.5 212.118 60.3031 211.205 59.9094C210.293 59.5156 209.499 58.9812 208.824 58.3062C208.149 57.6312 207.614 56.8375 207.221 55.925C206.827 55.0125 206.63 54.0375 206.63 53C206.63 51.9625 206.827 50.9875 207.221 50.075C207.614 49.1625 208.149 48.3687 208.824 47.6937C209.499 47.0187 210.293 46.4844 211.205 46.0906C212.118 45.6969 213.093 45.5 214.13 45.5C215.168 45.5 216.143 45.6969 217.055 46.0906C217.968 46.4844 218.761 47.0187 219.436 47.6937C220.111 48.3687 220.646 49.1625 221.039 50.075C221.433 50.9875 221.63 51.9625 221.63 53C221.63 54.0375 221.433 55.0125 221.039 55.925C220.646 56.8375 220.111 57.6312 219.436 58.3062C218.761 58.9812 217.968 59.5156 217.055 59.9094C216.143 60.3031 215.168 60.5 214.13 60.5ZM214.13 59C215.793 59 217.208 58.4156 218.377 57.2469C219.546 56.0781 220.13 54.6625 220.13 53C220.13 51.3375 219.546 49.9219 218.377 48.7531C217.208 47.5844 215.793 47 214.13 47C212.468 47 211.052 47.5844 209.883 48.7531C208.714 49.9219 208.13 51.3375 208.13 53C208.13 54.6625 208.714 56.0781 209.883 57.2469C211.052 58.4156 212.468 59 214.13 59Z" fill="#E09162"/>
</g>
<rect x="139" y="131" width="38" height="38" rx="19" fill="#4A7554"/>
<rect x="139" y="131" width="38" height="38" rx="19" stroke="white" stroke-width="2"/>
<g filter="url(#filter2_dd_735_2119)">
<rect x="138" y="130" width="40" height="40" rx="20" fill="white" fill-opacity="0.01" shape-rendering="crispEdges"/>
</g>
<path d="M153 157.917C152.764 157.917 152.566 157.837 152.406 157.677C152.247 157.517 152.167 157.319 152.167 157.083V155.375C151.917 155.097 151.715 154.788 151.563 154.448C151.41 154.108 151.333 153.736 151.333 153.333V145.417C151.333 144.264 151.868 143.42 152.938 142.885C154.007 142.351 155.694 142.083 158 142.083C160.389 142.083 162.097 142.34 163.125 142.854C164.153 143.368 164.667 144.222 164.667 145.417V153.333C164.667 153.736 164.59 154.108 164.438 154.448C164.285 154.788 164.083 155.097 163.833 155.375V157.083C163.833 157.319 163.754 157.517 163.594 157.677C163.434 157.837 163.236 157.917 163 157.917H162.167C161.931 157.917 161.733 157.837 161.573 157.677C161.413 157.517 161.333 157.319 161.333 157.083V156.25H154.667V157.083C154.667 157.319 154.587 157.517 154.427 157.677C154.267 157.837 154.069 157.917 153.833 157.917H153ZM153 148.75H163V146.25H153V148.75ZM155.083 153.75C155.431 153.75 155.726 153.628 155.969 153.385C156.212 153.142 156.333 152.847 156.333 152.5C156.333 152.153 156.212 151.858 155.969 151.615C155.726 151.372 155.431 151.25 155.083 151.25C154.736 151.25 154.441 151.372 154.198 151.615C153.955 151.858 153.833 152.153 153.833 152.5C153.833 152.847 153.955 153.142 154.198 153.385C154.441 153.628 154.736 153.75 155.083 153.75ZM160.917 153.75C161.264 153.75 161.559 153.628 161.802 153.385C162.045 153.142 162.167 152.847 162.167 152.5C162.167 152.153 162.045 151.858 161.802 151.615C161.559 151.372 161.264 151.25 160.917 151.25C160.569 151.25 160.274 151.372 160.031 151.615C159.788 151.858 159.667 152.153 159.667 152.5C159.667 152.847 159.788 153.142 160.031 153.385C160.274 153.628 160.569 153.75 160.917 153.75Z" fill="white"/>
<rect x="256" y="46" width="24" height="24" rx="12" fill="#E09162"/>
<g filter="url(#filter3_dd_735_2119)">
<rect x="256" y="46" width="24" height="24" rx="12" fill="white" fill-opacity="0.01" shape-rendering="crispEdges"/>
</g>
<path d="M268 58C268.321 58 268.596 57.8858 268.824 57.6573C269.052 57.4288 269.167 57.1542 269.167 56.8333C269.167 56.5125 269.052 56.2378 268.824 56.0094C268.596 55.7809 268.321 55.6667 268 55.6667C267.679 55.6667 267.405 55.7809 267.176 56.0094C266.948 56.2378 266.833 56.5125 266.833 56.8333C266.833 57.1542 266.948 57.4288 267.176 57.6573C267.405 57.8858 267.679 58 268 58ZM268 63.8333C266.435 62.5014 265.266 61.2642 264.493 60.1219C263.72 58.9795 263.333 57.9222 263.333 56.95C263.333 55.4917 263.802 54.3299 264.741 53.4646C265.679 52.5993 266.765 52.1667 268 52.1667C269.235 52.1667 270.321 52.5993 271.259 53.4646C272.198 54.3299 272.667 55.4917 272.667 56.95C272.667 57.9222 272.28 58.9795 271.507 60.1219C270.734 61.2642 269.565 62.5014 268 63.8333Z" fill="white"/>
<rect opacity="0.75" x="257" y="47" width="22" height="22" rx="11" stroke="#E09162" stroke-width="2"/>
</g>
<g filter="url(#filter4_d_735_2119)">
<path d="M28 332C28 320.954 36.9543 312 48 312H280C291.046 312 300 320.954 300 332V392H28V332Z" fill="white" shape-rendering="crispEdges"/>
<rect x="44" y="336" width="32" height="32" rx="16" fill="#F2EEE3"/>
<path d="M65.9625 358.75C64.4 358.75 62.8562 358.409 61.3313 357.728C59.8063 357.047 58.4187 356.081 57.1688 354.831C55.9188 353.581 54.9531 352.194 54.2719 350.669C53.5906 349.144 53.25 347.6 53.25 346.038C53.25 345.812 53.325 345.625 53.475 345.475C53.625 345.325 53.8125 345.25 54.0375 345.25H57.075C57.25 345.25 57.4062 345.309 57.5437 345.428C57.6812 345.547 57.7625 345.688 57.7875 345.85L58.275 348.475C58.3 348.675 58.2937 348.844 58.2562 348.981C58.2188 349.119 58.15 349.238 58.05 349.338L56.2313 351.175C56.4813 351.638 56.7781 352.084 57.1219 352.516C57.4656 352.947 57.8438 353.363 58.2562 353.762C58.6437 354.15 59.05 354.509 59.475 354.841C59.9 355.172 60.35 355.475 60.825 355.75L62.5875 353.988C62.7 353.875 62.8469 353.791 63.0281 353.734C63.2094 353.678 63.3875 353.663 63.5625 353.688L66.15 354.212C66.325 354.262 66.4688 354.353 66.5813 354.484C66.6938 354.616 66.75 354.762 66.75 354.925V357.962C66.75 358.188 66.675 358.375 66.525 358.525C66.375 358.675 66.1875 358.75 65.9625 358.75ZM55.5187 349.75L56.7562 348.513L56.4375 346.75H54.7687C54.8312 347.263 54.9188 347.769 55.0312 348.269C55.1437 348.769 55.3062 349.262 55.5187 349.75ZM62.2312 356.462C62.7188 356.675 63.2156 356.844 63.7219 356.969C64.2281 357.094 64.7375 357.175 65.25 357.212V355.562L63.4875 355.206L62.2312 356.462Z" fill="#4A7554"/>
<rect x="84" y="336" width="32" height="32" rx="16" fill="#F2EEE3"/>
<path d="M95.5 353.5H101.5V352H95.5V353.5ZM95.5 351.25H104.5V349.75H95.5V351.25ZM95.5 349H104.5V347.5H95.5V349ZM92.5 359.5V346C92.5 345.587 92.6469 345.234 92.9406 344.941C93.2344 344.647 93.5875 344.5 94 344.5H106C106.413 344.5 106.766 344.647 107.059 344.941C107.353 345.234 107.5 345.587 107.5 346V355C107.5 355.413 107.353 355.766 107.059 356.059C106.766 356.353 106.413 356.5 106 356.5H95.5L92.5 359.5ZM94.8625 355H106V346H94V355.844L94.8625 355ZM94 355V346V355Z" fill="#4A7554"/>
<path d="M174.229 348.75V347.247H175.598V348.75H174.229ZM168.95 348.75V347.247H173.67L172.491 348.265V346.081C172.491 345.47 172.428 344.994 172.302 344.655C172.176 344.315 171.967 344.076 171.675 343.937C171.382 343.798 170.984 343.729 170.481 343.729H169.428V342.225H170.481C171.283 342.225 171.964 342.356 172.522 342.617C173.081 342.878 173.505 343.292 173.794 343.856C174.084 344.421 174.229 345.163 174.229 346.081V348.75H168.95ZM175.598 348.75V347.247C175.647 347.247 175.688 347.264 175.721 347.299C175.754 347.334 175.78 347.384 175.799 347.449C175.818 347.515 175.833 347.593 175.843 347.684C175.853 347.775 175.858 347.879 175.858 347.994C175.858 348.11 175.853 348.215 175.843 348.308C175.833 348.402 175.818 348.482 175.799 348.547C175.78 348.613 175.754 348.663 175.721 348.698C175.688 348.733 175.647 348.75 175.598 348.75ZM183.282 348.75V347.247H184.651V348.75H183.282ZM175.593 348.75C175.544 348.75 175.503 348.733 175.47 348.698C175.437 348.663 175.411 348.613 175.392 348.547C175.373 348.482 175.359 348.402 175.349 348.308C175.338 348.215 175.333 348.11 175.333 347.994C175.333 347.839 175.341 347.707 175.358 347.598C175.374 347.488 175.401 347.402 175.44 347.34C175.479 347.278 175.53 347.247 175.593 347.247V348.75ZM175.588 348.75V347.247H182.337L181.543 347.918V345.525C181.543 345.054 181.491 344.688 181.387 344.425C181.283 344.163 181.104 343.977 180.85 343.868C180.596 343.758 180.244 343.704 179.794 343.704C179.437 343.704 179.087 343.727 178.746 343.774C178.404 343.821 178.136 343.885 177.94 343.965L179.022 342.954C178.97 343.149 178.919 343.399 178.871 343.703C178.822 344.008 178.782 344.332 178.751 344.674C178.719 345.017 178.704 345.352 178.704 345.679C178.704 345.986 178.719 346.304 178.748 346.633C178.778 346.961 178.813 347.252 178.853 347.503C178.893 347.755 178.924 347.926 178.947 348.017L177.295 348.479C177.257 348.353 177.213 348.151 177.162 347.874C177.111 347.597 177.067 347.268 177.029 346.888C176.992 346.508 176.973 346.105 176.973 345.679C176.973 345.251 176.994 344.836 177.034 344.433C177.075 344.03 177.125 343.665 177.185 343.337C177.244 343.009 177.3 342.747 177.352 342.551C177.556 342.473 177.879 342.395 178.322 342.317C178.764 342.239 179.255 342.2 179.794 342.2C180.568 342.2 181.214 342.309 181.732 342.525C182.25 342.742 182.638 343.093 182.895 343.579C183.153 344.065 183.282 344.719 183.282 345.54V348.75H175.588ZM184.651 348.75V347.247C184.699 347.247 184.74 347.264 184.773 347.299C184.806 347.334 184.832 347.384 184.851 347.449C184.87 347.515 184.885 347.593 184.895 347.684C184.906 347.775 184.911 347.879 184.911 347.994C184.911 348.11 184.906 348.215 184.895 348.308C184.885 348.402 184.87 348.482 184.851 348.547C184.832 348.613 184.806 348.663 184.773 348.698C184.74 348.733 184.699 348.75 184.651 348.75ZM191.392 348.75V347.247H192.761V348.75H191.392ZM184.654 348.75C184.605 348.75 184.564 348.733 184.531 348.698C184.498 348.663 184.472 348.613 184.453 348.547C184.434 348.482 184.42 348.402 184.41 348.308C184.399 348.215 184.394 348.11 184.394 347.994C184.394 347.839 184.402 347.707 184.419 347.598C184.435 347.488 184.462 347.402 184.501 347.34C184.54 347.278 184.591 347.247 184.654 347.247V348.75ZM184.654 348.75V347.247H190.238L189.653 347.718V345.318C189.653 344.8 189.491 344.408 189.167 344.139C188.842 343.871 188.33 343.737 187.631 343.737C187.432 343.737 187.16 343.751 186.814 343.78C186.469 343.809 186.092 343.854 185.684 343.913L185.517 342.54C185.882 342.45 186.259 342.375 186.647 342.315C187.036 342.255 187.414 342.225 187.783 342.225C188.495 342.225 189.121 342.349 189.661 342.595C190.201 342.842 190.624 343.195 190.931 343.654C191.238 344.114 191.392 344.668 191.392 345.318V348.75H184.654ZM192.761 348.75V347.247C192.81 347.247 192.85 347.264 192.883 347.299C192.916 347.334 192.942 347.384 192.961 347.449C192.98 347.515 192.995 347.593 193.005 347.684C193.016 347.775 193.021 347.879 193.021 347.994C193.021 348.11 193.016 348.215 193.005 348.308C192.995 348.402 192.98 348.482 192.961 348.547C192.942 348.613 192.916 348.663 192.883 348.698C192.85 348.733 192.81 348.75 192.761 348.75ZM192.761 348.75V347.247H199.51L198.716 347.918V345.525C198.716 345.054 198.664 344.688 198.56 344.425C198.456 344.163 198.277 343.977 198.023 343.868C197.769 343.758 197.417 343.704 196.967 343.704C196.61 343.704 196.26 343.727 195.919 343.774C195.577 343.821 195.309 343.885 195.113 343.965L196.195 342.954C196.143 343.149 196.092 343.399 196.044 343.703C195.995 344.008 195.955 344.332 195.924 344.674C195.892 345.017 195.877 345.352 195.877 345.679C195.877 345.986 195.892 346.304 195.921 346.633C195.951 346.961 195.986 347.252 196.026 347.503C196.066 347.755 196.097 347.926 196.12 348.017L194.468 348.479C194.43 348.353 194.386 348.151 194.335 347.874C194.284 347.597 194.24 347.268 194.202 346.888C194.165 346.508 194.146 346.105 194.146 345.679C194.146 345.251 194.167 344.836 194.207 344.433C194.248 344.03 194.298 343.665 194.358 343.337C194.417 343.009 194.473 342.747 194.525 342.551C194.729 342.473 195.052 342.395 195.495 342.317C195.937 342.239 196.428 342.2 196.967 342.2C197.741 342.2 198.387 342.309 198.905 342.525C199.423 342.742 199.811 343.093 200.068 343.579C200.326 344.065 200.455 344.719 200.455 345.54V348.75H192.761ZM192.766 348.75C192.717 348.75 192.676 348.733 192.643 348.698C192.61 348.663 192.584 348.613 192.565 348.547C192.546 348.482 192.532 348.402 192.522 348.308C192.511 348.215 192.506 348.11 192.506 347.994C192.506 347.839 192.514 347.707 192.531 347.598C192.547 347.488 192.574 347.402 192.613 347.34C192.652 347.278 192.703 347.247 192.766 347.247V348.75ZM209.992 348.75V347.247H211.361V348.75H209.992ZM204.713 348.75V347.247H209.433L208.254 348.265V346.081C208.254 345.47 208.191 344.994 208.065 344.655C207.939 344.315 207.73 344.076 207.438 343.937C207.145 343.798 206.747 343.729 206.244 343.729H205.191V342.225H206.244C207.046 342.225 207.727 342.356 208.285 342.617C208.844 342.878 209.268 343.292 209.557 343.856C209.847 344.421 209.992 345.163 209.992 346.081V348.75H204.713ZM211.361 348.75V347.247C211.41 347.247 211.451 347.264 211.484 347.299C211.517 347.334 211.543 347.384 211.562 347.449C211.581 347.515 211.596 347.593 211.606 347.684C211.616 347.775 211.621 347.879 211.621 347.994C211.621 348.11 211.616 348.215 211.606 348.308C211.596 348.402 211.581 348.482 211.562 348.547C211.543 348.613 211.517 348.663 211.484 348.698C211.451 348.733 211.41 348.75 211.361 348.75ZM219.045 348.75V347.247H220.414V348.75H219.045ZM211.356 348.75C211.307 348.75 211.266 348.733 211.233 348.698C211.2 348.663 211.174 348.613 211.155 348.547C211.136 348.482 211.122 348.402 211.112 348.308C211.101 348.215 211.096 348.11 211.096 347.994C211.096 347.839 211.104 347.707 211.121 347.598C211.137 347.488 211.164 347.402 211.203 347.34C211.242 347.278 211.293 347.247 211.356 347.247V348.75ZM211.351 348.75V347.247H218.1L217.306 347.918V345.525C217.306 345.054 217.254 344.688 217.15 344.425C217.046 344.163 216.867 343.977 216.613 343.868C216.359 343.758 216.007 343.704 215.557 343.704C215.2 343.704 214.85 343.727 214.509 343.774C214.167 343.821 213.899 343.885 213.703 343.965L214.785 342.954C214.733 343.149 214.682 343.399 214.634 343.703C214.585 344.008 214.545 344.332 214.514 344.674C214.482 345.017 214.467 345.352 214.467 345.679C214.467 345.986 214.482 346.304 214.511 346.633C214.541 346.961 214.576 347.252 214.616 347.503C214.656 347.755 214.687 347.926 214.71 348.017L213.058 348.479C213.02 348.353 212.976 348.151 212.925 347.874C212.874 347.597 212.83 347.268 212.792 346.888C212.755 346.508 212.736 346.105 212.736 345.679C212.736 345.251 212.757 344.836 212.797 344.433C212.838 344.03 212.888 343.665 212.948 343.337C213.007 343.009 213.063 342.747 213.115 342.551C213.319 342.473 213.642 342.395 214.085 342.317C214.527 342.239 215.018 342.2 215.557 342.2C216.331 342.2 216.977 342.309 217.495 342.525C218.013 342.742 218.401 343.093 218.658 343.579C218.916 344.065 219.045 344.719 219.045 345.54V348.75H211.351ZM220.414 348.75V347.247C220.462 347.247 220.503 347.264 220.536 347.299C220.569 347.334 220.595 347.384 220.614 347.449C220.633 347.515 220.648 347.593 220.658 347.684C220.669 347.775 220.674 347.879 220.674 347.994C220.674 348.11 220.669 348.215 220.658 348.308C220.648 348.402 220.633 348.482 220.614 348.547C220.595 348.613 220.569 348.663 220.536 348.698C220.503 348.733 220.462 348.75 220.414 348.75ZM220.417 348.75V347.247H226.001L225.416 347.718V345.318C225.416 344.8 225.254 344.408 224.93 344.139C224.605 343.871 224.093 343.737 223.394 343.737C223.195 343.737 222.923 343.751 222.577 343.78C222.232 343.809 221.855 343.854 221.447 343.913L221.28 342.54C221.645 342.45 222.022 342.375 222.41 342.315C222.799 342.255 223.177 342.225 223.546 342.225C224.258 342.225 224.884 342.349 225.424 342.595C225.964 342.842 226.387 343.195 226.694 343.654C227.001 344.114 227.155 344.668 227.155 345.318V348.75H220.417ZM220.417 348.75C220.368 348.75 220.327 348.733 220.294 348.698C220.261 348.663 220.235 348.613 220.216 348.547C220.197 348.482 220.183 348.402 220.173 348.308C220.162 348.215 220.157 348.11 220.157 347.994C220.157 347.839 220.165 347.707 220.182 347.598C220.198 347.488 220.225 347.402 220.264 347.34C220.303 347.278 220.354 347.247 220.417 347.247V348.75ZM229.1 348.75V339.563H230.83V348.75H229.1ZM229.184 338.511C229.016 338.312 228.889 338.12 228.804 337.938C228.718 337.755 228.676 337.561 228.676 337.355C228.676 337.058 228.753 336.791 228.906 336.555C229.06 336.32 229.264 336.134 229.519 335.998C229.773 335.862 230.051 335.794 230.353 335.794C230.518 335.794 230.687 335.817 230.859 335.863C231.03 335.908 231.177 335.973 231.297 336.055L230.855 336.848C230.779 336.805 230.703 336.776 230.629 336.762C230.554 336.747 230.478 336.74 230.402 336.74C230.196 336.74 230.036 336.795 229.923 336.906C229.809 337.017 229.752 337.162 229.752 337.341C229.752 337.447 229.774 337.548 229.816 337.643C229.859 337.739 229.925 337.841 230.013 337.949L229.184 338.511ZM228.389 338.611V337.674H231.535V338.611H228.389Z" fill="#4A7554"/>
<path d="M187.79 365.25C187.21 365.25 186.758 365.162 186.435 364.985C186.112 364.808 185.885 364.535 185.755 364.165C185.625 363.795 185.56 363.323 185.56 362.75C185.56 362.177 185.625 361.705 185.755 361.335C185.885 360.965 186.112 360.692 186.435 360.515C186.758 360.338 187.21 360.25 187.79 360.25H189.86V364.85H189.08V360.62L189.48 360.96H187.79C187.403 360.96 187.105 361.007 186.895 361.1C186.685 361.193 186.54 361.368 186.46 361.625C186.38 361.882 186.34 362.257 186.34 362.75C186.34 363.243 186.38 363.618 186.46 363.875C186.54 364.132 186.685 364.307 186.895 364.4C187.105 364.493 187.403 364.54 187.79 364.54H190.94V365.25H187.79ZM190.94 365.25V364.54C190.98 364.54 191.013 364.548 191.04 364.565C191.067 364.582 191.087 364.605 191.1 364.635C191.113 364.665 191.123 364.702 191.13 364.745C191.137 364.788 191.14 364.837 191.14 364.89C191.14 364.943 191.137 364.993 191.13 365.04C191.123 365.087 191.113 365.125 191.1 365.155C191.087 365.185 191.067 365.208 191.04 365.225C191.013 365.242 190.98 365.25 190.94 365.25ZM186.82 359.35V358.45H187.6V359.35H186.82ZM188.19 359.35V358.45H188.97V359.35H188.19ZM192.93 365.25V364.54H194.01V365.25H192.93ZM190.94 365.25C190.9 365.25 190.867 365.242 190.84 365.225C190.813 365.208 190.793 365.185 190.78 365.155C190.767 365.125 190.757 365.087 190.75 365.04C190.743 364.993 190.74 364.943 190.74 364.89C190.74 364.817 190.745 364.755 190.755 364.705C190.765 364.655 190.785 364.615 190.815 364.585C190.845 364.555 190.887 364.54 190.94 364.54V365.25ZM192.15 365.25V358.08H192.93V365.25H192.15ZM190.94 365.25V364.54H192.15V365.25H190.94ZM194.01 365.25V364.54C194.05 364.54 194.083 364.548 194.11 364.565C194.137 364.582 194.157 364.605 194.17 364.635C194.183 364.665 194.193 364.702 194.2 364.745C194.207 364.788 194.21 364.837 194.21 364.89C194.21 364.943 194.207 364.993 194.2 365.04C194.193 365.087 194.183 365.125 194.17 365.155C194.157 365.185 194.137 365.208 194.11 365.225C194.083 365.242 194.05 365.25 194.01 365.25ZM194.01 365.25V364.54H198.42L198.18 364.75V362.27C198.18 361.837 198.045 361.512 197.775 361.295C197.505 361.078 197.093 360.97 196.54 360.97C196.367 360.97 196.117 360.985 195.79 361.015C195.463 361.045 195.12 361.087 194.76 361.14L194.67 360.5C194.943 360.433 195.243 360.375 195.57 360.325C195.897 360.275 196.213 360.25 196.52 360.25C197.027 360.25 197.462 360.328 197.825 360.485C198.188 360.642 198.468 360.87 198.665 361.17C198.862 361.47 198.96 361.837 198.96 362.27V365.25H194.01ZM194.01 365.25C193.97 365.25 193.937 365.242 193.91 365.225C193.883 365.208 193.863 365.185 193.85 365.155C193.837 365.125 193.827 365.087 193.82 365.04C193.813 364.993 193.81 364.943 193.81 364.89C193.81 364.817 193.815 364.755 193.825 364.705C193.835 364.655 193.855 364.615 193.885 364.585C193.915 364.555 193.957 364.54 194.01 364.54V365.25ZM201.28 365.25V364.54H202.56V365.25H201.28ZM199.65 367.46C199.563 367.46 199.472 367.455 199.375 367.445C199.278 367.435 199.183 367.427 199.09 367.42L199.18 366.71C199.273 366.717 199.36 366.725 199.44 366.735C199.52 366.745 199.59 366.75 199.65 366.75C199.963 366.75 200.217 366.632 200.41 366.395C200.603 366.158 200.7 365.83 200.7 365.41V360.25H201.48V365.41C201.48 365.817 201.402 366.175 201.245 366.485C201.088 366.795 200.873 367.035 200.6 367.205C200.327 367.375 200.01 367.46 199.65 367.46ZM202.56 365.25V364.54C202.6 364.54 202.633 364.548 202.66 364.565C202.687 364.582 202.707 364.605 202.72 364.635C202.733 364.665 202.743 364.702 202.75 364.745C202.757 364.788 202.76 364.837 202.76 364.89C202.76 364.943 202.757 364.993 202.75 365.04C202.743 365.087 202.733 365.125 202.72 365.155C202.707 365.185 202.687 365.208 202.66 365.225C202.633 365.242 202.6 365.25 202.56 365.25ZM203.77 365.25V358.08H204.55V365.25H203.77ZM202.56 365.25V364.54H203.77V365.25H202.56ZM202.56 365.25C202.52 365.25 202.487 365.242 202.46 365.225C202.433 365.208 202.413 365.185 202.4 365.155C202.387 365.125 202.377 365.087 202.37 365.04C202.363 364.993 202.36 364.943 202.36 364.89C202.36 364.817 202.365 364.755 202.375 364.705C202.385 364.655 202.405 364.615 202.435 364.585C202.465 364.555 202.507 364.54 202.56 364.54V365.25ZM206.27 365.25V358.08H207.04V365.25H206.27ZM218.27 365.25V360.25H219.05V364.83L218.69 364.54H220.13V365.25H218.27ZM216.11 361.95V361.23H218.27V361.95H216.11ZM213.41 367.73C212.883 367.73 212.407 367.633 211.98 367.44C211.553 367.247 211.217 366.977 210.97 366.63C210.723 366.283 210.6 365.887 210.6 365.44C210.6 365.3 210.612 365.115 210.635 364.885C210.658 364.655 210.688 364.398 210.725 364.115C210.762 363.832 210.803 363.545 210.85 363.255C210.897 362.965 210.94 362.69 210.98 362.43L211.75 362.55C211.677 363.01 211.612 363.435 211.555 363.825C211.498 364.215 211.455 364.548 211.425 364.825C211.395 365.102 211.38 365.307 211.38 365.44C211.38 365.747 211.465 366.018 211.635 366.255C211.805 366.492 212.043 366.678 212.35 366.815C212.657 366.952 213.01 367.02 213.41 367.02C213.81 367.02 214.153 366.957 214.44 366.83C214.727 366.703 214.947 366.527 215.1 366.3C215.253 366.073 215.33 365.807 215.33 365.5V360.25H216.11V365.5C216.11 365.967 215.988 366.367 215.745 366.7C215.502 367.033 215.177 367.288 214.77 367.465C214.363 367.642 213.91 367.73 213.41 367.73ZM212.98 360.25V359.35H213.76V360.25H212.98ZM220.13 365.25V364.54C220.17 364.54 220.203 364.548 220.23 364.565C220.257 364.582 220.277 364.605 220.29 364.635C220.303 364.665 220.313 364.702 220.32 364.745C220.327 364.788 220.33 364.837 220.33 364.89C220.33 364.943 220.327 364.993 220.32 365.04C220.313 365.087 220.303 365.125 220.29 365.155C220.277 365.185 220.257 365.208 220.23 365.225C220.203 365.242 220.17 365.25 220.13 365.25ZM217.59 359.35V358.45H218.37V359.35H217.59ZM218.96 359.35V358.45H219.74V359.35H218.96ZM220.13 365.25V364.54H221.57L221.21 364.83V360.25H221.99V365.25H220.13ZM220.13 365.25C220.09 365.25 220.057 365.242 220.03 365.225C220.003 365.208 219.983 365.185 219.97 365.155C219.957 365.125 219.947 365.087 219.94 365.04C219.933 364.993 219.93 364.943 219.93 364.89C219.93 364.817 219.935 364.755 219.945 364.705C219.955 364.655 219.975 364.615 220.005 364.585C220.035 364.555 220.077 364.54 220.13 364.54V365.25ZM221.21 367.05V366.15H221.99V367.05H221.21ZM224.53 365.25V364.54H225.75V365.25H224.53ZM223.76 365.25V358.08H224.53V365.25H223.76ZM225.75 365.25V364.54C225.79 364.54 225.823 364.548 225.85 364.565C225.877 364.582 225.897 364.605 225.91 364.635C225.923 364.665 225.933 364.702 225.94 364.745C225.947 364.788 225.95 364.837 225.95 364.89C225.95 364.943 225.947 364.993 225.94 365.04C225.933 365.087 225.923 365.125 225.91 365.155C225.897 365.185 225.877 365.208 225.85 365.225C225.823 365.242 225.79 365.25 225.75 365.25ZM225.75 365.25V364.54H230.75L230.47 364.79V363.01C230.47 362.65 230.422 362.352 230.325 362.115C230.228 361.878 230.085 361.702 229.895 361.585C229.705 361.468 229.467 361.41 229.18 361.41H227L226.43 360.55L226.86 359.72C226.94 359.573 227.023 359.423 227.11 359.27C227.197 359.117 227.303 358.94 227.43 358.74C227.557 358.54 227.717 358.297 227.91 358.01L228.56 358.4C228.367 358.693 228.21 358.937 228.09 359.13C227.97 359.323 227.868 359.49 227.785 359.63C227.702 359.77 227.623 359.91 227.55 360.05L227.05 361.01L226.85 360.7H229.18C229.6 360.7 229.945 360.772 230.215 360.915C230.485 361.058 230.695 361.247 230.845 361.48C230.995 361.713 231.1 361.965 231.16 362.235C231.22 362.505 231.25 362.763 231.25 363.01V365.25H225.75ZM225.75 365.25C225.71 365.25 225.677 365.242 225.65 365.225C225.623 365.208 225.603 365.185 225.59 365.155C225.577 365.125 225.567 365.087 225.56 365.04C225.553 364.993 225.55 364.943 225.55 364.89C225.55 364.817 225.555 364.755 225.565 364.705C225.575 364.655 225.595 364.615 225.625 364.585C225.655 364.555 225.697 364.54 225.75 364.54V365.25Z" fill="#5F8A61"/>
<rect x="244.5" y="332.5" width="39" height="39" rx="19.5" fill="#F2EEE3"/>
<rect x="244.5" y="332.5" width="39" height="39" rx="19.5" stroke="#E6E2D7"/>
<path d="M264 352C262.9 352 261.958 351.608 261.175 350.825C260.392 350.042 260 349.1 260 348C260 346.9 260.392 345.958 261.175 345.175C261.958 344.392 262.9 344 264 344C265.1 344 266.042 344.392 266.825 345.175C267.608 345.958 268 346.9 268 348C268 349.1 267.608 350.042 266.825 350.825C266.042 351.608 265.1 352 264 352ZM256 360V357.2C256 356.633 256.146 356.113 256.438 355.637C256.729 355.162 257.117 354.8 257.6 354.55C258.633 354.033 259.683 353.646 260.75 353.387C261.817 353.129 262.9 353 264 353C265.1 353 266.183 353.129 267.25 353.387C268.317 353.646 269.367 354.033 270.4 354.55C270.883 354.8 271.271 355.162 271.562 355.637C271.854 356.113 272 356.633 272 357.2V360H256ZM258 358H270V357.2C270 357.017 269.954 356.85 269.863 356.7C269.771 356.55 269.65 356.433 269.5 356.35C268.6 355.9 267.692 355.562 266.775 355.337C265.858 355.112 264.933 355 264 355C263.067 355 262.142 355.112 261.225 355.337C260.308 355.562 259.4 355.9 258.5 356.35C258.35 356.433 258.229 356.55 258.138 356.7C258.046 356.85 258 357.017 258 357.2V358ZM264 350C264.55 350 265.021 349.804 265.413 349.412C265.804 349.021 266 348.55 266 348C266 347.45 265.804 346.979 265.413 346.588C265.021 346.196 264.55 346 264 346C263.45 346 262.979 346.196 262.588 346.588C262.196 346.979 262 347.45 262 348C262 348.55 262.196 349.021 262.588 349.412C262.979 349.804 263.45 350 264 350Z" fill="#4A7554"/>
</g>
</g>
<rect x="26" y="18" width="276" height="376" rx="22" stroke="#F7F3E8" stroke-width="4"/>
</g>
<defs>
<filter id="filter0_d_735_2119" x="0" y="0" width="328" height="428" filterUnits="userSpaceOnUse" color-interpolation-filters="sRGB">
<feFlood flood-opacity="0" result="BackgroundImageFix"/>
<feColorMatrix in="SourceAlpha" type="matrix" values="0 0 0 0 0 0 0 0 0 0 0 0 0 0 0 0 0 0 127 0" result="hardAlpha"/>
<feOffset dy="8"/>
<feGaussianBlur stdDeviation="12"/>
<feComposite in2="hardAlpha" operator="out"/>
<feColorMatrix type="matrix" values="0 0 0 0 0 0 0 0 0 0 0 0 0 0 0 0 0 0 0.12 0"/>
<feBlend mode="normal" in2="BackgroundImageFix" result="effect1_dropShadow_735_2119"/>
<feBlend mode="normal" in="SourceGraphic" in2="effect1_dropShadow_735_2119" result="shape"/>
</filter>
<filter id="filter1_d_735_2119" x="75.37" y="24" width="177.27" height="62" filterUnits="userSpaceOnUse" color-interpolation-filters="sRGB">
<feFlood flood-opacity="0" result="BackgroundImageFix"/>
<feColorMatrix in="SourceAlpha" type="matrix" values="0 0 0 0 0 0 0 0 0 0 0 0 0 0 0 0 0 0 127 0" result="hardAlpha"/>
<feOffset dy="4"/>
<feGaussianBlur stdDeviation="6"/>
<feComposite in2="hardAlpha" operator="out"/>
<feColorMatrix type="matrix" values="0 0 0 0 0.290196 0 0 0 0 0.458824 0 0 0 0 0.329412 0 0 0 0.1 0"/>
<feBlend mode="normal" in2="BackgroundImageFix" result="effect1_dropShadow_735_2119"/>
<feBlend mode="normal" in="SourceGraphic" in2="effect1_dropShadow_735_2119" result="shape"/>
</filter>
<clipPath id="bgblur_2_735_2119_clip_path" transform="translate(-75.37 -24)"><rect x="87.37" y="36" width="153.27" height="34" rx="17"/>
</clipPath><filter id="filter2_dd_735_2119" x="126" y="128" width="64" height="64" filterUnits="userSpaceOnUse" color-interpolation-filters="sRGB">
<feFlood flood-opacity="0" result="BackgroundImageFix"/>
<feColorMatrix in="SourceAlpha" type="matrix" values="0 0 0 0 0 0 0 0 0 0 0 0 0 0 0 0 0 0 127 0" result="hardAlpha"/>
<feMorphology radius="4" operator="erode" in="SourceAlpha" result="effect1_dropShadow_735_2119"/>
<feOffset dy="4"/>
<feGaussianBlur stdDeviation="3"/>
<feComposite in2="hardAlpha" operator="out"/>
<feColorMatrix type="matrix" values="0 0 0 0 0 0 0 0 0 0 0 0 0 0 0 0 0 0 0.1 0"/>
<feBlend mode="normal" in2="BackgroundImageFix" result="effect1_dropShadow_735_2119"/>
<feColorMatrix in="SourceAlpha" type="matrix" values="0 0 0 0 0 0 0 0 0 0 0 0 0 0 0 0 0 0 127 0" result="hardAlpha"/>
<feMorphology radius="3" operator="erode" in="SourceAlpha" result="effect2_dropShadow_735_2119"/>
<feOffset dy="10"/>
<feGaussianBlur stdDeviation="7.5"/>
<feComposite in2="hardAlpha" operator="out"/>
<feColorMatrix type="matrix" values="0 0 0 0 0 0 0 0 0 0 0 0 0 0 0 0 0 0 0.1 0"/>
<feBlend mode="normal" in2="effect1_dropShadow_735_2119" result="effect2_dropShadow_735_2119"/>
<feBlend mode="normal" in="SourceGraphic" in2="effect2_dropShadow_735_2119" result="shape"/>
</filter>
<filter id="filter3_dd_735_2119" x="251" y="45" width="34" height="34" filterUnits="userSpaceOnUse" color-interpolation-filters="sRGB">
<feFlood flood-opacity="0" result="BackgroundImageFix"/>
<feColorMatrix in="SourceAlpha" type="matrix" values="0 0 0 0 0 0 0 0 0 0 0 0 0 0 0 0 0 0 127 0" result="hardAlpha"/>
<feMorphology radius="2" operator="erode" in="SourceAlpha" result="effect1_dropShadow_735_2119"/>
<feOffset dy="2"/>
<feGaussianBlur stdDeviation="2"/>
<feComposite in2="hardAlpha" operator="out"/>
<feColorMatrix type="matrix" values="0 0 0 0 0 0 0 0 0 0 0 0 0 0 0 0 0 0 0.1 0"/>
<feBlend mode="normal" in2="BackgroundImageFix" result="effect1_dropShadow_735_2119"/>
<feColorMatrix in="SourceAlpha" type="matrix" values="0 0 0 0 0 0 0 0 0 0 0 0 0 0 0 0 0 0 127 0" result="hardAlpha"/>
<feMorphology radius="1" operator="erode" in="SourceAlpha" result="effect2_dropShadow_735_2119"/>
<feOffset dy="4"/>
<feGaussianBlur stdDeviation="3"/>
<feComposite in2="hardAlpha" operator="out"/>
<feColorMatrix type="matrix" values="0 0 0 0 0 0 0 0 0 0 0 0 0 0 0 0 0 0 0.1 0"/>
<feBlend mode="normal" in2="effect1_dropShadow_735_2119" result="effect2_dropShadow_735_2119"/>
<feBlend mode="normal" in="SourceGraphic" in2="effect2_dropShadow_735_2119" result="shape"/>
</filter>
<filter id="filter4_d_735_2119" x="12" y="292" width="304" height="112" filterUnits="userSpaceOnUse" color-interpolation-filters="sRGB">
<feFlood flood-opacity="0" result="BackgroundImageFix"/>
<feColorMatrix in="SourceAlpha" type="matrix" values="0 0 0 0 0 0 0 0 0 0 0 0 0 0 0 0 0 0 127 0" result="hardAlpha"/>
<feOffset dy="-4"/>
<feGaussianBlur stdDeviation="8"/>
<feComposite in2="hardAlpha" operator="out"/>
<feColorMatrix type="matrix" values="0 0 0 0 0.290196 0 0 0 0 0.458824 0 0 0 0 0.329412 0 0 0 0.08 0"/>
<feBlend mode="normal" in2="BackgroundImageFix" result="effect1_dropShadow_735_2119"/>
<feBlend mode="normal" in="SourceGraphic" in2="effect1_dropShadow_735_2119" result="shape"/>
</filter>
<clipPath id="clip0_735_2119">
<rect x="24" y="16" width="280" height="380" rx="24" fill="white"/>
</clipPath>
<clipPath id="clip1_735_2119">
<rect width="272" height="308" fill="white" transform="translate(28 20)"/>
</clipPath>
</defs>
</svg>
